<?xml version="1.0" standalone="no"?>
<!DOCTYPE svg PUBLIC "-//W3C//DTD SVG 20010904//EN"
 "http://www.w3.org/TR/2001/REC-SVG-20010904/DTD/svg10.dtd">
<svg version="1.0" xmlns="http://www.w3.org/2000/svg"
 width="16.000000pt" height="16.000000pt" viewBox="0 0 16.000000 16.000000"
 preserveAspectRatio="xMidYMid meet">
<metadata>
Created by potrace 1.11, written by Peter Selinger 2001-2013
</metadata>
<g transform="translate(0.000000,16.000000) scale(0.000761,-0.000761)"
fill="#000000" stroke="none">
<path d="M1020 17170 l0 -3730 1274 0 1273 0 6 408 c6 431 16 564 63 822 219
1198 964 2257 2062 2929 260 160 582 315 884 426 193 71 471 156 481 146 4 -4
6 -569 5 -1257 l-3 -1249 -25 3 c-14 1 -47 24 -75 51 -69 67 -234 188 -384
284 -193 123 -202 126 -378 133 -182 8 -250 -5 -395 -78 -109 -54 -442 -262
-534 -333 -32 -25 -78 -74 -102 -108 -55 -79 -169 -271 -215 -362 -37 -74
-120 -161 -572 -596 -234 -225 -350 -385 -390 -538 -9 -37 -18 -127 -22 -224
l-6 -163 130 -23 131 -23 118 32 c105 28 279 57 369 61 17 1 48 -3 70 -9 138
-38 429 -65 769 -71 l309 -6 -121 -155 c-66 -85 -138 -173 -160 -194 l-41 -39
-238 34 c-200 28 -268 33 -428 34 -163 0 -197 -3 -237 -19 -27 -10 -48 -23
-48 -27 0 -5 36 -119 79 -254 77 -236 83 -249 146 -340 36 -52 71 -98 79 -102
7 -4 25 -28 39 -53 l26 -46 -113 -177 c-62 -98 -115 -179 -118 -182 -2 -3 -98
-21 -214 -40 -174 -30 -223 -42 -296 -74 -89 -40 -258 -147 -258 -164 0 -5 34
-73 75 -152 l75 -143 177 -156 c151 -133 188 -160 246 -183 37 -15 71 -31 74
-35 4 -8 42 -529 43 -595 0 -19 -45 -53 -237 -182 -162 -108 -259 -180 -302
-225 l-65 -65 12 -63 c11 -59 15 -66 94 -145 107 -108 166 -142 373 -215 249
-88 231 -78 251 -142 l17 -55 81 -21 c201 -53 250 -70 267 -87 10 -10 34 -56
54 -102 l35 -83 -118 -122 c-92 -96 -127 -140 -159 -202 -62 -121 -113 -265
-113 -322 l0 -50 63 -41 c78 -51 141 -64 417 -86 113 -10 206 -18 207 -19 1
-1 -18 -56 -43 -121 l-45 -120 6 -225 c4 -124 13 -285 21 -358 9 -83 14 -242
14 -418 l0 -284 69 -112 c55 -91 78 -143 119 -268 52 -157 68 -256 108 -653
15 -151 70 -224 561 -735 270 -282 319 -329 379 -361 39 -21 91 -41 119 -44
28 -4 92 -21 143 -38 l92 -31 0 -984 0 -984 -1120 0 -1120 0 0 -1280 0 -1280
5550 0 5550 0 0 1275 0 1275 -995 0 -995 0 0 960 0 960 24 0 c13 0 114 18 225
40 280 56 309 71 459 239 117 131 173 207 199 269 8 21 55 94 104 164 76 108
95 144 129 240 21 62 95 244 163 403 114 267 126 301 153 435 28 142 29 151
29 465 l-1 320 -86 295 c-85 294 -85 296 -103 493 -9 109 -15 201 -12 204 3 3
90 7 194 10 202 5 295 24 407 80 l49 25 -6 76 c-8 96 -67 273 -132 397 -27 50
-82 130 -122 178 l-75 88 39 97 39 97 110 12 c60 6 123 12 140 12 28 1 35 7
55 48 l24 47 175 27 c228 35 343 75 552 192 l158 89 -7 76 c-5 71 -9 81 -47
127 -22 28 -103 113 -181 191 -137 138 -232 217 -309 256 l-38 19 7 177 c6
158 16 263 31 314 3 11 58 34 177 74 234 77 335 133 482 263 116 104 145 143
145 201 0 23 -15 40 -87 98 -219 173 -427 281 -577 298 -81 10 -90 24 -83 126
4 46 9 106 13 133 5 40 1 67 -20 129 l-27 78 42 77 c23 42 71 120 106 175 79
121 122 206 169 331 l36 96 -45 77 -44 77 -109 7 c-265 16 -540 -26 -765 -117
-12 -4 -27 11 -60 62 -24 37 -77 100 -116 139 -40 40 -73 77 -73 83 0 6 -9 15
-20 21 -18 10 -30 57 -12 48 183 -94 256 -116 422 -125 162 -8 300 15 516 87
98 34 242 77 319 96 139 35 141 36 299 137 94 60 163 111 169 125 9 19 3 49
-36 166 -51 153 -107 256 -215 391 -65 82 -245 261 -282 280 -17 9 -31 31 -44
67 -29 82 -151 333 -203 418 -52 84 -473 559 -556 628 -62 51 -157 106 -220
128 -45 15 -54 14 -312 -31 -384 -67 -585 -119 -869 -226 -131 -50 -289 -114
-352 -144 l-114 -54 0 1491 0 1490 48 -7 c85 -13 281 -74 450 -141 716 -283
1423 -763 1905 -1292 611 -671 943 -1391 1054 -2287 10 -82 16 -261 20 -567
l5 -448 1289 0 1289 0 0 3730 0 3730 -9490 0 -9490 0 0 -3730z m18470 -2 l0
-3211 -766 6 c-421 3 -768 7 -771 10 -2 3 -8 90 -13 194 -17 349 -54 598 -140
929 -244 943 -813 1817 -1630 2503 -794 666 -1798 1102 -2622 1138 l-138 6 0
-1945 0 -1946 -132 -7 c-73 -3 -188 -15 -255 -26 l-123 -19 -172 81 c-95 45
-177 84 -181 89 -5 4 -17 61 -28 126 -21 133 -31 168 -66 237 -13 27 -33 79
-45 115 -30 97 -51 134 -108 185 l-50 45 -78 -25 c-43 -15 -104 -45 -140 -70
-132 -94 -347 -333 -417 -465 -20 -38 -42 -68 -49 -68 -6 0 -109 12 -226 26
-209 25 -598 42 -992 43 l-137 1 -57 103 c-142 257 -258 374 -437 442 -95 35
-115 33 -163 -17 -59 -62 -134 -162 -186 -248 -57 -93 -143 -279 -159 -342 -6
-26 -16 -51 -23 -56 -6 -5 -58 -17 -116 -26 -58 -10 -162 -29 -231 -42 l-126
-24 -44 24 c-78 44 -379 166 -458 185 -42 11 -134 25 -206 32 l-129 12 -91 65
c-49 36 -111 83 -137 105 l-48 40 0 1689 0 1688 -32 0 c-56 0 -296 -30 -453
-56 -697 -116 -1377 -393 -1965 -800 -671 -464 -1219 -1094 -1581 -1816 -302
-603 -473 -1267 -496 -1925 l-6 -183 -759 0 -758 0 0 3205 0 3205 8970 0 8970
0 0 -3212z m-13066 -1478 c248 -83 274 -94 367 -155 55 -36 102 -72 105 -80 3
-8 15 -17 27 -21 11 -3 50 -34 87 -68 36 -33 110 -99 165 -146 54 -47 165
-148 247 -225 125 -118 159 -144 216 -168 73 -31 225 -77 340 -103 47 -10 136
-46 248 -101 143 -70 181 -93 214 -130 37 -42 60 -94 60 -135 0 -23 -44 -73
-104 -118 -66 -48 -104 -117 -84 -149 11 -19 19 -21 63 -16 137 17 287 89 470
224 59 44 193 64 379 58 258 -10 580 -27 656 -36 104 -12 348 -48 447 -66 149
-27 217 -18 693 90 113 26 246 54 295 61 50 8 112 18 138 24 67 14 168 12 262
-5 44 -8 161 -26 260 -40 173 -25 413 -79 560 -127 65 -21 70 -25 73 -53 2
-25 -10 -48 -63 -119 -71 -94 -78 -123 -34 -147 17 -9 25 -7 42 9 12 11 36 27
54 36 17 8 40 26 50 39 25 32 256 187 334 225 94 46 186 72 256 72 34 0 100 8
145 19 151 34 159 35 165 12 10 -39 32 -22 49 36 19 65 57 114 224 286 103
106 223 206 304 251 240 135 287 155 572 250 159 53 303 96 319 96 17 0 64 12
105 26 41 15 107 29 146 31 65 5 77 3 137 -26 45 -21 80 -47 106 -79 290 -342
430 -541 513 -732 33 -74 66 -156 74 -181 12 -39 21 -50 64 -73 28 -15 79 -50
112 -77 94 -75 278 -242 278 -251 0 -5 16 -34 35 -64 29 -45 35 -64 35 -110
l0 -55 -65 -29 c-131 -59 -242 -78 -527 -90 -119 -5 -228 -12 -242 -16 -18 -4
-34 1 -58 19 -18 14 -44 28 -58 32 -14 4 -51 21 -82 36 -32 16 -79 36 -105 45
-27 9 -60 25 -74 35 -14 10 -52 28 -85 40 -155 58 -260 162 -309 306 -14 43
-37 91 -50 108 -33 40 -72 38 -195 -8 -93 -35 -98 -35 -295 -42 l-200 -7 -175
-49 c-96 -27 -184 -54 -195 -60 -31 -15 -115 -97 -115 -111 1 -30 38 -61 86
-70 27 -5 219 -13 427 -16 l379 -7 41 -80 c22 -44 44 -88 49 -98 6 -13 -2 -36
-28 -83 -34 -61 -36 -69 -30 -124 16 -144 95 -334 208 -501 46 -68 152 -207
237 -308 85 -102 187 -236 228 -300 87 -134 185 -264 213 -284 18 -13 21 -44
45 -533 47 -963 46 -1002 -38 -1409 -14 -66 -28 -160 -32 -210 -6 -80 -12
-100 -55 -185 -28 -56 -87 -145 -142 -215 l-94 -120 -116 -3 -116 -3 -6 -42
c-13 -82 -17 -84 -176 -89 -77 -3 -143 -8 -146 -11 -9 -9 -91 -347 -104 -427
-12 -74 -11 -78 20 -170 18 -52 65 -156 105 -230 112 -208 199 -385 256 -521
l53 -124 10 -240 c5 -132 10 -394 10 -583 1 -188 3 -342 5 -342 3 0 13 7 23
17 39 35 14 -10 -63 -113 -89 -120 -103 -144 -113 -191 -4 -17 -64 -137 -133
-265 -69 -128 -131 -250 -139 -271 -18 -50 -90 -172 -135 -227 -45 -56 -86
-125 -127 -214 -43 -92 -82 -134 -166 -179 -66 -36 -82 -40 -231 -58 -88 -10
-189 -19 -225 -19 -36 0 -86 -8 -113 -17 -40 -14 -54 -15 -90 -5 -23 7 -81 23
-130 36 -90 25 -173 70 -206 113 -11 13 -39 29 -63 36 -36 10 -46 19 -65 57
-12 25 -34 92 -48 149 -19 72 -37 120 -62 157 l-36 54 8 113 c4 61 7 179 5
261 l-2 148 65 67 c59 59 74 83 142 231 42 91 85 174 95 185 9 11 30 40 46 65
15 25 42 61 60 80 28 31 33 45 43 130 6 52 18 124 26 160 8 36 15 89 15 118 0
70 -35 183 -78 252 -19 30 -41 66 -49 79 -14 21 -16 22 -31 7 -14 -14 -16 -48
-17 -254 l-1 -237 -62 -123 c-63 -124 -171 -269 -297 -402 -29 -30 -92 -104
-140 -164 l-88 -109 -32 -128 -33 -128 30 -98 c17 -56 32 -133 35 -180 l6 -82
-244 -123 c-314 -158 -326 -161 -594 -154 -110 4 -250 9 -311 12 -109 6 -111
5 -199 -30 l-89 -36 -235 0 c-130 0 -265 5 -301 11 -36 5 -87 13 -115 18 -27
4 -74 20 -104 35 l-54 28 7 51 c3 29 6 70 6 93 0 31 8 51 36 87 25 32 35 53
32 73 -6 52 -27 50 -123 -14 -49 -33 -187 -116 -306 -186 -270 -157 -371 -195
-602 -226 l-155 -21 -79 20 c-43 11 -143 30 -223 41 -80 12 -154 23 -165 25
-11 3 -94 14 -183 26 -146 18 -169 24 -215 51 -29 17 -54 33 -55 34 -2 1 6 24
17 50 29 65 53 229 41 275 -25 88 -140 241 -204 269 -22 9 -48 26 -58 36 -28
32 -200 336 -218 384 -15 42 -20 46 -75 65 -33 11 -61 20 -62 20 0 0 -8 38
-16 85 -12 66 -39 141 -124 335 l-108 250 0 90 c0 61 8 121 24 185 18 70 24
119 23 188 -1 51 -4 98 -8 103 -20 34 -81 -91 -126 -259 -40 -153 -48 -309
-23 -479 19 -132 40 -238 60 -298 7 -22 15 -63 18 -90 5 -41 13 -59 42 -90 49
-53 81 -110 96 -168 9 -36 19 -51 40 -62 32 -17 67 -61 98 -122 11 -23 47 -66
78 -95 32 -29 93 -87 136 -128 l78 -76 33 -110 c18 -60 39 -147 46 -193 l13
-83 -34 -69 -33 -69 -154 -80 c-84 -44 -166 -80 -182 -80 -15 0 -72 -11 -126
-25 -55 -14 -152 -33 -217 -42 -114 -17 -119 -17 -150 1 -18 10 -138 73 -267
139 l-235 120 -125 121 c-69 67 -177 172 -240 234 -142 139 -124 122 -195 182
-32 28 -72 70 -88 93 -48 71 -104 189 -116 245 -14 65 -53 141 -135 258 -70
101 -106 183 -106 247 0 23 -7 67 -15 97 -14 52 -55 368 -75 582 -5 54 -14
261 -21 462 -6 200 -12 370 -12 378 -3 19 89 187 231 424 114 192 126 217 177
372 51 153 55 173 55 260 0 51 -4 101 -9 111 -10 18 -46 36 -145 72 -33 12
-70 33 -83 47 -15 16 -68 42 -138 69 -133 49 -187 87 -294 206 -51 58 -88 112
-123 182 l-51 100 -5 205 c-2 113 -9 210 -14 217 -6 8 -10 214 -11 530 -2 466
0 528 16 613 11 52 21 124 24 160 2 36 8 74 13 85 4 11 14 67 20 125 6 58 27
169 46 248 19 78 34 157 34 175 0 42 4 48 146 234 101 131 153 188 309 333
109 102 206 201 233 240 25 36 67 90 92 120 55 65 58 74 61 209 l3 104 -31 27
c-47 42 -51 81 -17 151 15 33 32 59 38 59 5 0 58 49 117 109 59 60 122 117
141 126 18 9 45 30 59 47 l25 30 134 -11 c73 -6 194 -11 269 -10 151 0 216 15
269 60 26 23 30 31 23 54 -6 26 -20 33 -176 86 -205 70 -255 80 -554 109 -108
10 -112 9 -181 -31 -64 -38 -189 -135 -309 -243 -163 -145 -281 -215 -400
-236 -62 -12 -97 -11 -249 4 -97 10 -269 33 -382 52 -113 19 -248 38 -300 42
-105 8 -324 0 -354 -13 -17 -8 -19 -5 -12 26 11 58 120 157 291 264 243 153
325 244 631 691 150 219 261 337 409 434 84 54 271 151 327 169 20 7 42 19 48
27 7 7 13 14 14 14 2 0 123 -40 270 -90z m3279 -283 c35 -45 97 -171 97 -199
0 -18 -4 -20 -37 -14 -121 21 -117 21 -135 -18 -10 -19 -35 -47 -57 -60 -22
-14 -42 -34 -46 -46 -5 -16 -15 -20 -51 -20 l-44 0 0 48 c1 26 7 63 14 82 8
19 20 51 27 70 8 19 20 39 27 43 6 4 12 17 12 27 0 10 8 25 19 32 10 7 25 27
34 44 9 18 31 44 48 59 37 30 26 36 92 -48z m2476 -47 c7 -49 17 -90 22 -90 5
0 9 -11 9 -25 0 -14 7 -42 15 -62 8 -19 15 -48 15 -64 0 -34 -6 -35 -100 -14
-36 8 -87 14 -115 15 -51 0 -168 -31 -192 -52 -27 -22 -26 3 2 73 18 44 41 81
62 99 18 16 33 35 33 43 0 17 20 37 40 37 8 1 29 19 45 40 17 21 37 39 46 40
9 0 24 11 33 25 11 17 26 25 45 25 28 0 28 -1 40 -90z m-1874 -445 c492 -60
782 -69 950 -30 116 27 149 29 225 10 43 -11 75 -14 79 -8 3 5 28 17 55 27 41
16 67 18 153 13 217 -12 428 -38 506 -63 43 -13 89 -24 101 -24 48 0 282 -93
278 -110 -1 -6 -12 -25 -24 -41 -26 -34 -42 -33 -143 8 -33 13 -82 28 -110 33
-27 5 -99 20 -160 34 -181 41 -401 67 -635 73 -233 6 -383 -4 -567 -38 l-112
-21 -376 42 c-321 36 -396 41 -518 37 -243 -8 -469 -37 -647 -83 -160 -41
-290 -81 -315 -98 -18 -12 -30 -13 -50 -6 -14 5 -25 14 -25 19 0 5 -2 15 -5
23 -4 9 21 21 82 41 49 16 102 33 118 39 17 5 71 24 120 40 50 17 162 45 250
63 154 32 170 33 405 34 161 1 286 -4 365 -14z m-5045 -1705 c0 -5 20 -10 44
-10 53 0 106 -10 106 -20 0 -4 -17 -29 -39 -56 -21 -27 -41 -65 -44 -84 -3
-19 -19 -65 -36 -102 -34 -74 -54 -84 -99 -52 -20 14 -22 24 -22 98 0 69 -3
86 -19 100 -18 17 -22 15 -79 -28 -82 -63 -113 -62 -164 2 -21 26 -38 55 -38
64 0 10 -4 18 -9 18 -5 0 -11 10 -13 23 -3 20 4 23 72 38 86 19 340 25 340 9z
m11113 -337 c89 -5 97 -8 97 -26 0 -25 -28 -57 -50 -57 -9 0 -20 -4 -25 -8 -6
-5 -48 -15 -95 -22 -142 -21 -210 -68 -210 -145 0 -31 -4 -37 -37 -50 -20 -9
-42 -14 -49 -13 -20 5 -194 218 -194 238 0 19 71 50 117 50 13 0 23 5 23 10 0
6 21 10 48 11 26 0 67 4 92 8 59 11 162 12 283 4z m-796 -115 c16 -18 44 -53
61 -78 17 -25 52 -65 77 -89 25 -24 62 -68 81 -98 19 -30 97 -121 172 -203 76
-82 147 -164 157 -183 18 -35 18 -45 -9 -619 -15 -321 -33 -612 -40 -648 -32
-157 -56 -302 -66 -397 -8 -72 -32 -174 -84 -355 -89 -307 -110 -366 -190
-533 -56 -116 -151 -264 -162 -253 -7 8 26 96 102 276 41 95 74 179 74 187 0
8 4 15 8 15 5 0 15 32 22 71 7 39 30 124 52 188 21 64 52 154 68 201 19 57 31
117 35 180 4 52 11 111 16 131 5 20 16 155 24 300 8 145 21 365 29 489 26 402
29 510 16 610 -11 89 -20 118 -42 144 -21 26 -168 248 -168 254 0 5 -23 33
-50 64 -28 31 -89 125 -136 210 -47 84 -88 156 -91 161 -12 20 17 3 44 -25z
m-10357 -180 c-12 -39 -33 -96 -47 -127 -14 -31 -31 -81 -38 -111 -7 -30 -49
-161 -94 -290 -44 -129 -90 -280 -102 -334 -23 -108 -21 -138 11 -266 49 -190
70 -475 70 -940 0 -173 4 -342 10 -375 46 -296 64 -348 157 -466 33 -42 64
-85 67 -97 14 -42 47 -72 87 -78 31 -5 57 -23 129 -91 85 -80 96 -96 200 -279
60 -107 110 -198 110 -203 0 -5 16 -18 35 -30 41 -24 47 -64 15 -102 l-20 -24
-65 70 c-61 66 -136 179 -151 228 -4 12 -28 67 -55 123 -57 121 -128 204 -195
230 -46 18 -62 30 -167 132 -66 65 -90 106 -170 282 -105 231 -112 279 -67
444 19 68 19 78 6 157 -8 46 -19 197 -25 334 -14 308 -27 455 -47 543 -9 37
-19 96 -24 132 -4 36 -15 94 -25 130 l-18 65 118 355 c121 362 211 578 278
666 31 40 32 41 35 17 2 -13 -6 -56 -18 -95z m-615 -610 c-4 -18 -17 -57 -29
-87 -18 -48 -26 -56 -56 -64 -52 -13 -121 -3 -141 22 -10 12 -24 21 -32 21 -9
0 -19 9 -22 20 -3 11 -17 23 -30 26 -13 3 -29 12 -35 19 -12 15 -12 15 125 49
83 20 102 23 168 25 l59 1 -7 -32z m11915 -454 c52 -14 159 -59 259 -107 59
-28 133 -86 126 -98 -4 -5 -15 -9 -26 -9 -10 0 -27 -8 -37 -17 -10 -10 -40
-33 -66 -51 l-48 -33 -53 25 c-63 31 -111 33 -140 6 -21 -20 -23 -20 -74 -3
-46 15 -55 22 -77 64 -21 42 -24 62 -24 150 l0 101 53 -7 c28 -3 77 -13 107
-21z m-11877 -1176 c17 -54 36 -171 37 -220 0 -24 -3 -27 -27 -23 -16 2 -63 6
-107 9 -78 6 -78 6 -107 -26 -29 -30 -31 -30 -69 -19 -40 12 -70 43 -70 71 0
8 34 50 74 93 57 61 93 89 158 123 45 24 86 44 89 44 3 0 13 -24 22 -52z
m11699 -304 c32 -16 98 -71 171 -142 104 -103 118 -120 115 -146 -4 -39 -37
-48 -143 -40 -67 5 -83 4 -94 -10 -7 -9 -26 -16 -41 -16 -15 0 -56 -11 -91
-24 -74 -27 -145 -40 -153 -27 -9 14 23 122 48 166 13 22 29 58 36 80 7 22 23
65 35 95 13 30 26 63 29 73 7 24 28 21 88 -9z m-10997 -1000 c11 -21 23 -41
27 -45 4 -3 19 -34 33 -68 15 -35 33 -74 42 -87 15 -24 15 -24 -18 -24 -27 0
-42 -10 -84 -55 -41 -44 -58 -55 -83 -55 -17 0 -38 7 -46 16 -14 13 -24 14
-67 5 -27 -6 -70 -11 -95 -11 l-44 0 25 51 c36 71 106 178 142 217 35 38 123
101 138 98 6 -1 19 -20 30 -42z m10144 -169 c32 -28 72 -93 91 -150 6 -19 16
-35 21 -35 5 0 12 -8 16 -17 3 -10 23 -58 44 -107 22 -49 39 -90 39 -91 0 -1
-33 -6 -74 -10 l-75 -7 -29 33 -29 32 -90 -16 c-131 -24 -123 -27 -123 46 0
88 22 145 70 182 22 17 39 35 39 40 1 16 55 124 63 124 3 1 20 -10 37 -24z
m-2618 -4114 c171 -99 183 -105 355 -154 l179 -52 5 -1035 c5 -931 8 -1041 23
-1098 33 -121 79 -187 160 -226 80 -39 236 -46 1075 -46 l742 0 0 -755 0 -755
-5032 2 -5033 3 -3 753 -2 752 902 0 c852 1 1047 6 1137 30 53 14 125 81 156
143 58 120 58 112 62 1198 l4 997 42 6 c23 4 85 22 137 41 590 209 572 203
707 218 l127 15 81 -29 c44 -17 179 -53 300 -81 l220 -51 231 -5 c216 -4 241
-2 390 23 102 18 190 39 247 61 l89 34 182 0 183 0 304 -71 c252 -59 327 -72
439 -80 l135 -9 245 51 c160 33 330 77 490 126 277 85 363 103 470 99 l75 -3
176 -102z"/>
<path d="M8530 20019 c-3017 -3 -5731 -7 -6033 -8 l-547 -1 2 -2837 3 -2838
365 0 365 0 7 175 c32 780 213 1436 566 2060 357 631 919 1204 1606 1636 719
454 1622 767 2401 834 245 21 629 5 722 -31 l23 -9 0 -1755 0 -1755 48 0 c89
-1 335 -73 526 -154 l180 -77 74 13 c106 18 120 29 175 144 93 191 194 333
356 497 l116 117 102 0 c94 0 111 -3 220 -42 139 -48 254 -119 357 -217 71
-68 209 -244 221 -281 4 -12 17 -25 30 -30 13 -5 167 -12 342 -16 185 -4 389
-14 488 -24 l170 -18 15 21 c40 57 196 231 278 308 158 151 226 192 429 260
98 32 182 59 188 59 5 0 74 -57 153 -126 160 -140 184 -176 242 -358 17 -52
35 -98 40 -101 9 -6 64 -169 75 -221 7 -38 26 -56 79 -78 41 -17 84 -20 103
-8 6 4 17 20 22 35 8 20 11 657 11 2084 l0 2056 128 -6 c492 -24 1165 -188
1785 -434 1063 -422 1955 -1070 2530 -1837 477 -636 759 -1344 852 -2141 8
-71 20 -231 27 -354 l12 -224 231 6 c126 4 290 7 363 7 l132 0 0 2840 0 2840
-2547 -2 c-1402 -1 -5016 -5 -8033 -9z"/>
<path d="M10331 14044 c-20 -39 -22 -54 -16 -111 4 -36 15 -96 26 -134 10 -38
19 -84 19 -102 0 -42 64 -138 101 -151 14 -5 43 -6 64 -2 l38 7 -7 109 c-7
106 -6 111 23 182 61 151 51 171 -104 218 -55 16 -105 30 -111 30 -6 0 -21
-21 -33 -46z"/>
<path d="M10478 13493 c-34 -13 -38 -19 -38 -49 0 -19 14 -62 31 -95 l30 -61
-35 -86 c-19 -48 -37 -97 -41 -109 -3 -13 -11 -23 -16 -23 -13 0 -49 38 -49
51 0 6 -32 44 -72 85 -57 59 -77 74 -101 74 -16 0 -75 21 -131 46 -136 62
-190 68 -277 26 -35 -17 -77 -35 -93 -41 -26 -11 -28 -14 -21 -49 4 -20 9 -40
11 -43 2 -4 50 -22 106 -40 57 -18 106 -37 109 -42 4 -5 16 -44 28 -87 14 -52
40 -107 76 -165 63 -101 90 -168 100 -247 7 -56 6 -58 -31 -104 -90 -107 -127
-143 -155 -149 -29 -7 -79 -50 -79 -70 -1 -20 -79 -75 -107 -75 -37 0 -103 19
-103 29 0 5 -64 11 -142 13 -139 5 -147 6 -273 51 -177 62 -239 88 -315 134
-163 99 -165 99 -440 142 -140 23 -320 47 -400 56 -392 41 -404 42 -485 73
-126 46 -219 65 -297 57 -46 -5 -83 -2 -120 8 -91 25 -118 28 -152 13 -17 -8
-59 -19 -94 -25 -86 -14 -190 -57 -228 -93 -30 -28 -43 -32 -225 -59 -107 -16
-222 -39 -257 -50 -62 -21 -150 -84 -163 -118 -24 -60 -53 -289 -53 -416 0
-136 1 -142 35 -232 29 -78 47 -107 111 -181 66 -77 83 -91 124 -102 33 -10
62 -28 98 -64 61 -62 102 -81 152 -71 36 6 36 7 30 43 -3 20 -9 78 -12 127 -5
84 -3 103 39 270 25 99 48 194 52 212 9 44 88 116 151 136 62 21 170 37 252
37 65 0 335 -55 547 -111 66 -17 146 -36 178 -42 l57 -11 0 -45 c1 -123 52
-277 116 -354 24 -29 24 -47 -1 -47 -7 0 -15 -4 -17 -9 -1 -5 -75 -52 -163
-104 -153 -92 -164 -96 -265 -116 -58 -11 -143 -25 -190 -31 -200 -25 -270
-57 -318 -147 -16 -32 -38 -85 -47 -118 -9 -33 -21 -69 -26 -79 -14 -23 -35
-89 -88 -271 -23 -77 -46 -154 -51 -171 -6 -17 -10 -67 -10 -112 0 -75 -5 -96
-70 -277 -73 -208 -89 -286 -67 -345 9 -27 17 -35 37 -35 20 0 31 11 52 50 15
28 35 73 44 100 19 56 59 130 87 160 27 29 51 78 122 253 86 214 116 278 159
342 42 62 186 188 225 196 14 3 48 12 75 20 26 7 81 14 120 14 85 0 341 55
461 99 44 16 150 59 235 96 85 37 176 76 203 87 26 11 47 25 47 29 0 5 6 9 14
9 7 0 78 32 157 71 122 60 155 72 226 82 46 6 83 14 83 19 0 4 11 8 25 8 15 0
35 12 51 29 20 23 38 31 77 36 150 19 375 121 552 247 99 72 104 73 385 73
l255 0 55 31 c45 25 61 42 89 92 19 34 38 62 42 62 3 0 25 -38 47 -85 50 -103
82 -126 252 -182 112 -37 119 -38 260 -38 94 0 152 5 166 12 19 11 38 4 150
-55 71 -38 197 -106 279 -153 83 -47 166 -92 185 -100 20 -7 148 -79 285 -159
192 -112 253 -152 268 -178 14 -24 26 -32 46 -31 14 1 83 -26 152 -60 189 -91
554 -229 998 -376 138 -45 164 -67 235 -191 32 -55 63 -96 83 -109 22 -14 37
-35 48 -70 9 -27 48 -111 87 -185 39 -76 76 -161 83 -195 7 -33 22 -96 34
-140 11 -44 25 -111 32 -150 18 -110 65 -235 105 -277 19 -21 38 -38 43 -38
12 0 31 81 31 135 0 25 -9 78 -20 117 -26 93 -25 106 5 195 l25 73 -35 237
c-40 268 -55 322 -100 375 -51 60 -90 199 -90 320 l0 97 -53 54 c-48 49 -61
56 -150 82 -53 15 -115 32 -137 37 -22 5 -44 14 -50 21 -5 7 -28 22 -50 33
-32 17 -388 237 -405 251 -2 2 13 56 34 120 36 110 38 122 34 214 -4 79 -10
106 -31 147 l-26 50 26 7 c15 3 221 10 458 15 265 5 441 12 458 19 69 27 90
10 163 -124 21 -38 55 -89 76 -112 21 -24 46 -58 54 -77 15 -31 15 -39 -1
-112 -9 -44 -35 -121 -56 -173 -48 -115 -53 -207 -15 -258 7 -9 110 30 150 56
35 21 62 31 90 31 79 1 186 33 186 56 0 7 9 21 19 31 11 10 30 59 44 110 22
79 31 96 65 127 71 65 101 221 94 484 l-4 154 -61 39 c-33 21 -72 39 -87 39
-14 0 -51 7 -81 16 -50 14 -66 28 -219 183 -158 161 -167 169 -218 180 -93 19
-163 25 -171 13 -4 -7 -74 -15 -171 -22 -91 -6 -185 -15 -210 -20 -73 -16
-347 -40 -461 -40 -90 0 -113 -3 -155 -24 -103 -49 -103 -49 -294 -10 -317 64
-289 63 -540 14 -47 -10 -207 -68 -315 -115 -190 -83 -263 -119 -278 -140 -33
-45 -118 -53 -385 -40 l-142 8 -32 36 c-17 20 -83 82 -147 139 l-116 103 -12
97 c-17 137 -4 207 63 344 47 93 57 107 84 113 16 4 64 31 106 61 99 71 125
84 185 91 l49 6 0 48 c0 36 -5 54 -20 69 -11 11 -20 24 -20 29 0 12 -73 71
-124 100 -37 21 -43 21 -115 10 -42 -7 -80 -18 -86 -26 -10 -13 -202 -83 -228
-83 -7 0 -43 -13 -80 -28 -52 -22 -75 -39 -102 -75 -20 -26 -40 -45 -46 -42
-5 4 -9 42 -9 85 0 87 -12 130 -35 130 -8 0 -15 8 -15 18 0 18 -61 127 -83
149 -9 9 -21 8 -49 -4z m-1521 -1544 c5 -5 57 -15 114 -20 57 -6 110 -12 118
-15 21 -7 5 -16 -41 -25 -24 -4 -86 -18 -138 -32 -52 -14 -96 -24 -98 -23 -1
2 1 30 4 64 7 60 18 74 41 51z m-542 -19 c2 -4 -11 -23 -30 -43 -19 -20 -35
-43 -35 -51 0 -8 -9 -20 -19 -26 -11 -5 -26 -22 -33 -37 -22 -46 -35 -38 -40
24 -3 32 -2 60 2 63 4 3 13 22 19 42 10 29 18 37 39 40 37 4 91 -2 97 -12z
m4405 -190 c4 -25 -1 -51 -20 -90 -14 -30 -29 -58 -35 -62 -13 -10 -84 -9
-108 1 -16 6 -16 10 11 47 16 22 40 47 53 56 14 8 33 32 44 52 24 45 48 43 55
-4z m-673 -16 c3 -9 0 -20 -7 -24 -9 -5 -10 -24 -5 -69 4 -33 4 -61 -1 -61
-11 0 -207 110 -228 129 -17 15 -14 17 60 27 121 18 174 17 181 -2z"/>
<path d="M10205 11049 c-22 -6 -89 -27 -150 -46 -60 -19 -219 -61 -352 -94
-338 -82 -510 -146 -650 -240 l-75 -51 7 -51 c4 -29 9 -55 11 -58 2 -4 32 -10
66 -13 35 -4 97 -19 138 -34 117 -40 159 -36 266 25 100 57 161 77 207 68 18
-4 78 -34 134 -67 l102 -60 12 -59 c10 -49 20 -68 68 -121 47 -52 72 -69 156
-109 55 -25 120 -50 145 -54 40 -6 49 -12 79 -58 l33 -52 -6 -125 c-11 -223
-47 -316 -138 -362 -66 -33 -149 -45 -352 -53 -147 -6 -169 -9 -285 -45 -146
-45 -228 -60 -326 -60 l-70 0 -33 64 c-18 35 -43 72 -55 84 -12 11 -94 46
-182 77 -164 58 -311 125 -377 173 -44 31 -148 167 -148 193 0 37 -34 125 -57
147 -17 16 -36 22 -66 22 -40 0 -43 -3 -76 -58 -33 -55 -54 -114 -109 -307
-24 -84 -26 -105 -26 -305 -1 -207 0 -219 28 -324 l29 -109 -29 -27 c-51 -46
-130 -143 -158 -195 -16 -27 -40 -67 -56 -90 -73 -107 -118 -238 -127 -368 -7
-98 -2 -107 51 -107 33 0 76 41 206 193 137 161 230 211 770 414 121 45 330
149 350 173 3 3 59 14 124 24 66 9 156 26 200 36 165 39 317 52 536 47 252 -6
320 -20 455 -89 81 -41 117 -67 191 -139 79 -77 96 -89 125 -89 l34 0 18 102
c10 56 21 106 25 110 25 25 228 36 327 17 28 -5 113 -16 190 -25 116 -14 189
-31 429 -100 315 -91 336 -101 383 -182 15 -26 37 -60 49 -77 33 -45 54 -103
54 -150 0 -92 -60 -153 -210 -212 -144 -57 -213 -73 -354 -83 -67 -5 -188 -19
-271 -31 -126 -18 -198 -22 -450 -23 -344 -1 -382 4 -541 80 -51 24 -96 44
-102 44 -6 0 -12 4 -14 10 -1 5 -57 24 -123 41 -66 17 -141 42 -167 55 -26 13
-53 24 -60 24 -7 0 -55 -42 -108 -94 -79 -78 -106 -98 -161 -119 -111 -43
-181 -51 -420 -44 -151 5 -226 4 -250 -4 -45 -15 -89 -57 -89 -85 0 -25 34
-36 162 -54 85 -12 269 -65 278 -80 4 -6 22 -19 41 -29 31 -17 34 -23 32 -59
-1 -22 -30 -109 -67 -200 -72 -176 -79 -220 -50 -304 13 -39 20 -47 45 -50 27
-4 34 0 56 35 90 142 384 457 427 457 13 0 26 4 28 9 6 18 248 34 398 27 250
-12 255 -13 346 -84 55 -42 94 -83 125 -129 68 -102 73 -110 114 -215 38 -97
38 -97 69 -92 72 12 70 11 89 76 20 70 106 258 118 258 4 0 35 21 68 48 119
94 147 114 241 168 144 83 241 131 311 154 75 26 238 51 369 57 112 6 220 -16
359 -72 100 -39 292 -89 404 -104 43 -6 89 -14 103 -17 14 -4 24 -2 24 5 0 6
11 11 24 11 12 0 37 10 54 23 87 62 124 87 130 87 4 0 40 33 80 73 l72 72 14
145 c8 79 13 147 11 150 -2 3 -9 43 -15 89 -6 45 -16 95 -23 109 -24 55 -108
166 -162 213 -66 58 -82 67 -155 90 -51 16 -55 19 -52 45 2 16 15 61 29 99 54
154 75 388 54 605 -12 116 -16 132 -65 240 l-51 115 -43 3 c-40 3 -44 1 -119
-76 -43 -43 -96 -101 -118 -129 -22 -28 -61 -65 -86 -83 -26 -17 -61 -47 -79
-65 -19 -19 -49 -40 -69 -46 -57 -19 -154 -102 -194 -166 -49 -80 -90 -115
-172 -148 -105 -43 -203 -41 -410 8 -254 61 -547 107 -740 117 -221 11 -256
22 -295 87 -14 24 -27 73 -36 138 -14 98 -14 102 12 211 31 130 66 200 111
224 18 10 38 22 45 28 7 5 37 15 67 21 116 25 194 60 249 112 28 28 52 57 52
64 0 27 46 83 87 106 39 21 46 22 75 10 208 -84 426 -111 578 -71 41 11 84 20
95 20 21 1 85 98 85 128 0 39 -105 172 -135 171 -5 0 -37 30 -70 66 l-60 65
-135 20 c-74 12 -209 25 -300 31 -91 5 -190 14 -220 20 -30 6 -111 14 -180 19
-152 11 -165 14 -365 85 -213 76 -362 104 -440 84z m-1830 -1443 c14 -28 25
-60 25 -73 0 -12 19 -46 43 -75 37 -47 52 -56 118 -78 99 -34 179 -69 179 -78
0 -25 -38 -44 -150 -77 -69 -20 -144 -47 -167 -60 -41 -22 -42 -22 -71 -5 -32
20 -31 15 -53 240 -17 166 -19 294 -5 302 14 10 48 -31 81 -96z m4483 -45 c-6
-105 -48 -194 -107 -231 -28 -17 -42 -34 -47 -55 -4 -16 -18 -44 -32 -62 -23
-31 -28 -33 -86 -33 -43 0 -70 6 -93 20 -18 11 -33 22 -33 25 0 3 11 28 25 54
19 38 48 67 128 129 103 80 149 128 180 189 15 28 29 38 61 42 5 0 7 -35 4
-78z"/>
<path d="M12535 4533 c-16 -3 -140 -38 -275 -79 -156 -48 -345 -97 -521 -134
l-277 -59 -166 9 c-150 9 -192 16 -453 76 l-288 67 -165 1 c-156 1 -169 0
-240 -26 -42 -16 -154 -41 -257 -58 -165 -27 -202 -30 -415 -30 l-234 0 -250
55 c-137 31 -285 67 -329 81 -116 37 -168 30 -434 -62 -118 -41 -217 -74 -218
-74 -2 0 -3 -361 -3 -802 -1 -837 -8 -1113 -34 -1265 -47 -270 -145 -395 -351
-448 -105 -27 -361 -35 -1132 -35 l-753 0 0 -350 0 -350 4650 0 4650 0 0 348
0 349 -277 6 c-153 4 -438 7 -633 7 -641 0 -808 26 -935 141 -62 57 -97 122
-122 224 -15 63 -17 178 -20 1132 l-4 1063 -52 15 c-29 8 -127 58 -218 110
-96 55 -177 94 -190 94 -13 -1 -37 -4 -54 -6z"/>
</g>
</svg>
