<?xml version="1.0" standalone="no"?>
<!DOCTYPE svg PUBLIC "-//W3C//DTD SVG 20010904//EN"
 "http://www.w3.org/TR/2001/REC-SVG-20010904/DTD/svg10.dtd">
<svg version="1.0" xmlns="http://www.w3.org/2000/svg"
 width="16.000000pt" height="16.000000pt" viewBox="0 0 16.000000 16.000000"
 preserveAspectRatio="xMidYMid meet">
<metadata>
Created by potrace 1.11, written by Peter Selinger 2001-2013
</metadata>
<g transform="translate(0.000000,16.000000) scale(0.000761,-0.000761)"
fill="#000000" stroke="none">
<path d="M1043 20902 l-22 -3 0 -3729 0 -3729 1275 0 c991 0 1274 2 1275 12 0
7 2 183 4 392 2 209 6 398 9 420 2 22 7 72 10 110 3 39 8 81 11 95 3 14 7 41
9 60 12 102 55 312 97 470 49 185 174 539 200 565 5 5 9 15 9 22 0 41 208 428
338 628 315 484 777 949 1264 1270 45 30 88 58 93 62 6 5 55 35 110 67 55 33
111 66 124 74 56 34 335 172 436 216 61 26 124 54 140 61 178 77 634 222 636
201 1 -6 2 -570 3 -1253 1 -825 -2 -1243 -9 -1244 -26 -3 -43 5 -75 38 -49 50
-290 230 -385 288 -44 27 -93 59 -110 71 -63 46 -126 65 -225 70 -137 6 -222
6 -245 0 -11 -3 -40 -10 -65 -16 -62 -15 -235 -104 -355 -181 -55 -36 -131
-85 -170 -109 -146 -92 -210 -147 -268 -233 -68 -102 -145 -234 -198 -340 -23
-44 -53 -90 -68 -101 -14 -11 -51 -47 -81 -80 -67 -73 -78 -84 -328 -325 -111
-106 -211 -200 -222 -208 -11 -8 -50 -54 -85 -101 -36 -48 -68 -91 -73 -97
-15 -19 -68 -110 -81 -140 -28 -62 -43 -144 -47 -255 -3 -63 -6 -136 -8 -163
-2 -26 0 -49 3 -52 4 -2 66 -14 137 -26 l129 -22 115 33 c63 18 149 36 190 40
97 11 174 21 178 25 2 2 27 -3 55 -11 29 -8 70 -17 92 -20 22 -3 63 -9 90 -14
28 -5 82 -12 120 -15 39 -3 86 -8 105 -10 126 -15 213 -19 432 -19 171 -1 244
-4 240 -12 -28 -44 -206 -267 -253 -316 l-58 -60 -53 7 c-29 4 -60 8 -68 10
-8 1 -42 6 -75 10 -32 4 -68 9 -80 11 -11 2 -44 7 -74 10 -30 3 -58 7 -62 10
-4 2 -63 7 -131 10 -67 4 -136 7 -151 8 -94 6 -257 -30 -257 -57 0 -5 32 -108
70 -227 39 -119 70 -223 70 -229 0 -7 23 -47 52 -89 78 -118 91 -135 113 -153
11 -9 30 -34 42 -56 l22 -39 -70 -110 c-39 -60 -92 -141 -117 -180 l-46 -72
-71 -12 c-38 -7 -81 -14 -95 -16 -14 -3 -47 -9 -75 -14 -27 -5 -70 -12 -95
-15 -59 -8 -101 -21 -178 -56 -35 -16 -66 -29 -68 -29 -5 0 -151 -99 -181
-122 -10 -8 -9 -15 1 -31 7 -12 41 -76 75 -142 69 -135 76 -141 333 -365 70
-60 116 -91 162 -110 36 -14 67 -28 70 -31 6 -6 18 -155 30 -374 3 -38 7 -109
11 -157 l7 -87 -229 -151 c-160 -107 -251 -174 -304 -227 l-76 -75 13 -64 c13
-61 18 -70 91 -142 99 -99 166 -139 328 -197 72 -26 163 -59 204 -73 l74 -27
18 -54 c11 -30 20 -56 22 -58 2 -2 77 -23 167 -47 98 -27 170 -52 180 -63 10
-10 34 -56 54 -102 l36 -85 -103 -105 c-160 -165 -159 -164 -244 -371 -25 -62
-36 -104 -38 -153 l-3 -67 58 -40 c32 -21 68 -41 81 -44 13 -2 44 -9 69 -14
25 -5 52 -10 60 -10 20 0 167 -12 205 -17 17 -2 68 -7 115 -11 47 -3 88 -8 91
-10 4 -2 -14 -57 -38 -121 l-44 -118 6 -230 c3 -126 11 -270 17 -320 6 -49 12
-234 13 -410 l2 -321 69 -115 c58 -96 79 -143 122 -275 49 -153 56 -180 67
-289 8 -75 15 -136 21 -175 2 -19 6 -57 9 -85 14 -155 18 -173 51 -238 44 -89
141 -203 377 -447 62 -64 189 -196 284 -295 150 -157 182 -185 245 -217 40
-21 93 -40 118 -43 25 -3 87 -20 138 -37 l92 -32 0 -983 0 -983 -82 0 c-46 0
-549 0 -1120 0 -807 -1 -1037 -3 -1040 -13 -2 -7 -4 -581 -4 -1277 l1 -1265
5552 -1 c4141 -1 5553 1 5555 10 4 10 3 2523 -1 2536 0 3 -445 5 -988 4 -544
0 -992 3 -998 7 -7 5 -9 332 -9 951 1 518 2 946 3 949 1 3 25 9 54 12 28 3 61
8 72 11 11 2 92 18 180 36 169 34 254 67 303 119 15 15 61 65 102 111 41 47
82 91 90 100 26 27 107 154 115 180 4 14 13 32 20 40 10 13 55 78 151 217 12
18 35 74 52 125 16 51 88 230 160 398 119 280 132 316 156 440 35 183 38 213
36 460 -2 310 -2 319 -54 500 -27 91 -50 172 -52 180 -2 8 -19 69 -37 135 -21
73 -37 156 -41 213 -4 51 -9 100 -10 110 -2 9 -7 56 -11 105 l-7 87 54 1 c29
1 80 3 113 4 33 2 98 4 145 5 144 3 360 86 346 132 -3 7 -7 38 -10 68 -7 78
-78 277 -138 390 -28 52 -54 97 -57 100 -11 9 -117 135 -124 146 -3 6 11 53
32 105 l38 94 119 11 c65 7 121 12 124 12 33 0 43 7 60 46 19 46 24 49 115 62
179 25 235 37 352 75 90 29 162 62 280 129 l158 89 -3 77 -3 77 -55 69 c-30
37 -74 85 -97 105 -53 49 -93 89 -137 139 -41 48 -193 165 -245 189 l-36 18 6
156 c7 169 11 232 19 271 18 84 2 73 189 134 194 64 344 139 422 210 28 26 78
70 112 99 67 57 81 79 90 142 l5 42 -73 60 c-114 93 -295 213 -352 235 -178
66 -187 69 -278 82 -51 7 -63 81 -35 216 11 54 11 71 0 102 -7 21 -13 40 -14
43 -5 39 -15 68 -26 72 -16 6 46 125 153 293 44 69 87 139 96 156 19 37 97
241 97 253 0 5 -18 41 -41 80 -30 52 -48 73 -67 78 -35 9 -350 9 -422 0 -105
-12 -305 -58 -343 -79 -10 -5 -38 -15 -62 -23 l-44 -13 -43 66 c-24 37 -76 99
-115 139 -40 40 -73 77 -73 83 0 5 -9 14 -20 20 -11 6 -20 20 -20 31 0 20 1
20 43 -4 66 -38 197 -85 262 -93 72 -10 287 -9 370 1 63 7 146 31 330 95 61
20 176 54 257 75 114 29 161 47 205 75 32 21 104 67 160 104 77 49 104 72 109
92 5 19 -6 66 -36 158 -47 141 -109 255 -208 381 -67 85 -252 269 -291 289
-18 10 -30 26 -34 45 -8 41 -165 374 -179 379 -4 2 -8 8 -8 13 0 13 -84 139
-117 175 -115 127 -188 207 -202 222 -48 56 -172 192 -211 232 -75 78 -190
152 -272 176 -47 14 -97 12 -208 -11 -14 -3 -41 -8 -60 -11 -317 -49 -631
-126 -836 -205 -88 -34 -170 -64 -184 -69 -53 -16 -169 -66 -260 -111 l-95
-46 -3 1485 c-1 817 0 1487 2 1490 7 6 152 -26 238 -53 501 -158 1090 -473
1553 -830 66 -51 129 -101 140 -111 11 -11 47 -41 80 -69 181 -150 420 -398
591 -612 83 -103 243 -327 270 -378 6 -11 22 -38 36 -60 55 -84 193 -347 231
-440 9 -22 30 -74 48 -115 68 -161 180 -531 204 -670 3 -19 12 -69 20 -110 17
-95 43 -290 51 -395 11 -151 13 -211 13 -553 l1 -342 1293 2 1292 3 0 3728 c0
2478 -3 3727 -10 3728 -26 3 -18933 4 -18952 1z m18447 -3732 l0 -3210 -737 5
c-406 2 -754 4 -773 5 l-35 0 -2 133 c-2 72 -5 149 -7 170 -3 20 -2 37 2 37 5
0 8 -10 8 -22 2 -101 18 -281 27 -296 4 -5 1342 -8 1475 -3 l22 1 0 3195 c0
2123 3 3195 10 3195 7 0 10 -1077 10 -3210z m-17928 3135 c3 -14 2 -27 -1 -30
-4 -2 -8 10 -9 26 -3 36 4 38 10 4z m3 -85 c3 -5 1 -10 -4 -10 -6 0 -11 5 -11
10 0 6 2 10 4 10 3 0 8 -4 11 -10z m-8 -42 c-3 -8 -6 -5 -6 6 -1 11 2 17 5 13
3 -3 4 -12 1 -19z m0 -110 c-3 -8 -6 -5 -6 6 -1 11 2 17 5 13 3 -3 4 -12 1
-19z m17565 -27 c15 -1 16 -78 13 -1028 -2 -566 -7 -1847 -10 -2847 -3 -1001
-7 -1822 -10 -1824 -5 -5 -42 -7 -430 -17 -143 -4 -273 -8 -290 -8 l-30 -2 -1
95 c-2 91 -11 261 -18 325 -6 56 -20 170 -21 175 -1 3 -5 30 -9 60 -5 30 -10
64 -12 75 -3 11 -7 36 -10 55 -29 194 -120 571 -175 727 -79 223 -253 599
-385 829 -133 232 -243 384 -459 634 -137 159 -458 467 -609 585 -21 17 -44
35 -50 41 -41 38 -300 225 -446 322 -96 63 -187 123 -202 133 -15 11 -29 19
-32 19 -2 0 -51 28 -108 62 -103 61 -451 241 -563 290 -33 15 -86 38 -117 52
-260 118 -677 262 -968 337 -132 34 -447 105 -502 113 -21 3 -57 10 -80 15
-24 5 -68 13 -98 16 -30 4 -57 8 -60 10 -11 6 -170 17 -260 18 l-95 2 -1
-1035 c-2 -1650 -15 -2985 -29 -2999 -3 -2 -5 911 -5 2029 l0 2033 122 -7 c68
-3 134 -8 148 -10 14 -2 54 -7 90 -11 36 -3 74 -8 85 -10 11 -2 38 -7 60 -9
22 -3 51 -8 65 -10 14 -3 39 -7 55 -10 146 -23 431 -91 640 -151 850 -248
1645 -649 2285 -1154 273 -215 585 -519 770 -750 19 -24 40 -48 45 -55 67 -73
365 -507 365 -531 0 -2 20 -37 44 -78 118 -199 268 -551 347 -811 35 -116 85
-302 92 -343 3 -15 8 -35 11 -43 3 -8 7 -31 10 -50 3 -19 8 -46 11 -60 3 -14
10 -54 16 -90 5 -36 12 -76 14 -90 7 -42 24 -191 30 -260 12 -137 16 -189 20
-315 2 -71 4 -133 4 -137 1 -4 130 -5 289 -3 158 2 321 4 364 4 l76 1 2 2103
c0 1156 2 2434 3 2840 l2 739 -6160 -7 c-7039 -8 -10973 -13 -10995 -14 -14
-1 -15 -78 -13 -663 1 -365 3 -1636 3 -2826 1 -1190 3 -2169 6 -2176 4 -11 78
-14 370 -14 l364 -1 1 97 c1 53 2 115 4 137 11 171 17 243 20 265 2 14 6 56
10 93 3 37 8 78 10 89 3 12 9 57 15 100 10 73 53 290 66 330 2 9 7 26 9 38 13
67 118 414 136 450 4 8 26 65 49 125 56 144 191 420 277 565 256 430 547 773
962 1136 28 25 135 110 226 181 171 134 431 301 675 435 135 74 403 208 417
208 2 0 28 11 56 24 412 187 997 354 1462 415 252 34 672 37 825 6 14 -3 40
-8 58 -11 17 -3 33 -9 33 -13 1 -3 2 -793 3 -1756 l1 -1750 60 -6 c114 -11
335 -75 495 -144 225 -97 218 -103 -15 -12 -136 52 -332 111 -400 120 -22 3
-66 8 -97 12 -50 7 -58 11 -59 29 0 11 -1 805 -1 1764 -1 958 -4 1742 -7 1742
-3 0 -35 5 -71 10 -205 30 -532 33 -702 5 -13 -2 -45 -6 -73 -10 -85 -10 -118
-15 -170 -26 -27 -5 -59 -11 -70 -13 -25 -4 -93 -17 -120 -22 -47 -9 -308 -75
-405 -102 -524 -150 -1013 -357 -1380 -585 -189 -117 -376 -243 -465 -314 -16
-13 -34 -27 -40 -31 -32 -23 -151 -117 -155 -122 -3 -3 -34 -30 -69 -59 -123
-101 -347 -320 -466 -456 -38 -44 -75 -86 -82 -93 -29 -30 -205 -266 -264
-352 -281 -413 -477 -854 -606 -1365 -14 -55 -27 -111 -29 -125 -3 -14 -13
-68 -24 -120 -10 -52 -21 -113 -23 -135 -3 -22 -11 -78 -17 -125 -18 -139 -19
-151 -26 -240 -3 -47 -7 -101 -9 -120 -2 -19 -7 -89 -10 -155 -4 -66 -8 -121
-10 -123 -3 -3 -297 -4 -593 -3 l-172 1 0 2859 c0 2666 1 2860 17 2863 13 2
17117 1 17175 -1z m-17560 -56 c3 -14 2 -27 -1 -30 -4 -2 -8 10 -9 26 -3 36 4
38 10 4z m3 -85 c3 -5 1 -10 -4 -10 -6 0 -11 5 -11 10 0 6 2 10 4 10 3 0 8 -4
11 -10z m-8 -42 c-3 -8 -6 -5 -6 6 -1 11 2 17 5 13 3 -3 4 -12 1 -19z m5 -113
c3 -14 2 -27 -1 -30 -4 -2 -8 10 -9 26 -3 36 4 38 10 4z m3 -85 c3 -5 1 -10
-4 -10 -6 0 -11 5 -11 10 0 6 2 10 4 10 3 0 8 -4 11 -10z m-8 -42 c-3 -8 -6
-5 -6 6 -1 11 2 17 5 13 3 -3 4 -12 1 -19z m5 -113 c3 -14 2 -27 -1 -30 -4 -2
-8 10 -9 26 -3 36 4 38 10 4z m3 -85 c3 -5 1 -10 -4 -10 -6 0 -11 5 -11 10 0
6 2 10 4 10 3 0 8 -4 11 -10z m-8 -42 c-3 -8 -6 -5 -6 6 -1 11 2 17 5 13 3 -3
4 -12 1 -19z m5 -113 c3 -14 2 -27 -1 -30 -4 -2 -8 10 -9 26 -3 36 4 38 10 4z
m3 -85 c3 -5 1 -10 -4 -10 -6 0 -11 5 -11 10 0 6 2 10 4 10 3 0 8 -4 11 -10z
m-8 -42 c-3 -8 -6 -5 -6 6 -1 11 2 17 5 13 3 -3 4 -12 1 -19z m6 -88 c3 -11 2
-22 -2 -24 -4 -3 -8 6 -9 20 -2 29 4 31 11 4z m0 -80 c3 -11 2 -22 -2 -24 -4
-3 -8 6 -9 20 -2 29 4 31 11 4z m0 -80 c3 -11 2 -22 -2 -24 -4 -3 -8 6 -9 20
-2 29 4 31 11 4z m1 -99 c2 -17 1 -33 -3 -35 -4 -3 -7 14 -8 36 -2 46 5 46 11
-1z m5826 -51 c0 -5 -15 -10 -32 -10 -18 0 -114 -14 -213 -30 -247 -42 -244
-42 -219 -31 18 8 97 21 434 74 14 3 26 5 28 6 1 0 2 -3 2 -9z m83 3 c-13 -2
-35 -2 -50 0 -16 2 -5 4 22 4 28 0 40 -2 28 -4z m144 -1680 l0 -1688 79 -58
c128 -93 241 -139 399 -162 102 -15 273 -68 425 -132 112 -48 215 -73 277 -67
88 8 346 43 349 47 1 1 42 83 93 183 50 99 123 229 162 290 81 124 189 256
204 250 125 -48 221 -99 114 -60 -101 37 -105 37 -158 -14 -137 -132 -308
-423 -352 -597 -16 -61 -12 -55 -40 -60 -49 -10 -85 -17 -114 -21 -31 -5 -49
-8 -120 -19 -22 -4 -80 -15 -129 -26 l-88 -19 -92 45 c-235 114 -420 177 -556
191 -36 3 -76 8 -90 9 -14 2 -41 4 -61 4 -29 1 -59 17 -140 75 -57 41 -121 90
-141 109 l-37 34 0 1686 c0 928 4 1687 8 1687 4 0 8 -759 8 -1687z m5795 -255
c-1 -1068 -5 -1945 -10 -1949 -4 -4 -65 -10 -137 -13 -71 -4 -143 -9 -160 -12
-16 -3 -70 -11 -119 -19 l-89 -13 -141 68 c-78 37 -157 75 -178 84 -38 18 -43
28 -53 111 -4 28 -10 67 -15 89 -5 23 -5 35 1 29 5 -5 13 -33 19 -63 19 -103
74 -155 238 -233 81 -38 93 -40 177 -41 50 0 124 3 165 7 106 10 180 18 215
22 17 2 35 4 41 4 8 1 12 515 12 1929 0 1060 1 1930 1 1935 1 4 9 7 19 7 16 0
17 -98 14 -1942z m75 1936 c-3 -3 -12 -4 -19 -1 -8 3 -5 6 6 6 11 1 17 -2 13
-5z m153 -2 c0 -5 -28 -7 -62 -4 -90 5 -95 10 -10 11 39 1 72 -3 72 -7z m135
-7 c32 -4 68 -9 79 -11 11 -2 38 -6 61 -9 22 -4 56 -10 75 -15 19 -5 51 -12
70 -15 87 -15 507 -142 498 -151 -3 -2 -45 10 -94 26 -174 59 -415 117 -619
149 -111 17 -128 19 -162 20 -18 1 -33 5 -33 11 0 5 15 8 33 6 17 -3 59 -8 92
-11z m-12210 -35 c3 -5 1 -10 -4 -10 -6 0 -11 5 -11 10 0 6 2 10 4 10 3 0 8
-4 11 -10z m-8 -42 c-3 -8 -6 -5 -6 6 -1 11 2 17 5 13 3 -3 4 -12 1 -19z
m5342 -1 c-2 -1 -83 -22 -179 -46 -234 -59 -541 -164 -753 -258 -239 -106
-587 -297 -766 -421 -78 -53 -324 -234 -331 -243 -3 -3 -32 -28 -65 -55 -33
-26 -78 -64 -99 -84 -22 -19 -51 -45 -65 -58 -14 -13 -61 -57 -103 -99 -43
-42 -78 -73 -78 -69 0 3 31 36 69 73 274 269 584 507 911 700 116 68 378 202
530 271 84 38 274 110 412 156 191 64 558 159 517 133z m-5337 -112 c3 -14 2
-27 -1 -30 -4 -2 -8 10 -9 26 -3 36 4 38 10 4z m13059 -30 c19 -8 29 -14 23
-15 -7 0 -27 7 -45 15 -19 8 -29 14 -23 15 7 0 27 -7 45 -15z m79 -30 c14 -8
21 -14 15 -14 -5 0 -21 6 -35 14 -14 8 -20 14 -15 14 6 0 21 -6 35 -14z
m-13135 -25 c3 -5 1 -10 -4 -10 -6 0 -11 5 -11 10 0 6 2 10 4 10 3 0 8 -4 11
-10z m-8 -42 c-3 -8 -6 -5 -6 6 -1 11 2 17 5 13 3 -3 4 -12 1 -19z m13328 -10
c5 -5 -6 -3 -25 3 -19 6 -39 16 -45 21 -5 5 6 3 25 -3 19 -6 39 -16 45 -21z
m45 -18 c8 -5 11 -10 5 -10 -5 0 -17 5 -25 10 -8 5 -10 10 -5 10 6 0 17 -5 25
-10z m65 -38 c-3 -3 -11 0 -18 7 -9 10 -8 11 6 5 10 -3 15 -9 12 -12z m209
-95 c522 -270 889 -539 1311 -962 110 -110 214 -216 231 -235 78 -91 217 -264
278 -345 37 -49 70 -95 74 -100 51 -65 213 -322 281 -445 49 -88 199 -393 229
-465 11 -27 31 -77 45 -110 39 -93 121 -345 168 -515 21 -76 59 -261 74 -360
9 -58 18 -116 21 -130 2 -14 7 -52 10 -85 4 -33 8 -63 11 -67 2 -5 -1 -8 -6
-8 -6 0 -11 12 -12 28 0 15 -2 36 -4 47 -2 11 -7 49 -11 85 -3 36 -8 68 -11
72 -2 5 -6 27 -9 50 -23 199 -163 705 -245 885 -10 23 -19 44 -19 48 0 3 -18
47 -40 98 -107 249 -283 569 -428 777 -25 36 -59 85 -76 110 -16 25 -32 47
-36 50 -3 3 -25 32 -50 65 -24 33 -58 76 -75 96 -16 20 -39 47 -49 60 -191
240 -501 544 -786 771 -69 55 -134 107 -145 116 -80 65 -503 342 -522 342 -3
0 -14 6 -22 14 -9 8 -97 56 -196 107 -99 50 -182 93 -184 95 -19 17 39 -10
193 -89z m-13642 48 c3 -14 2 -27 -1 -30 -4 -2 -8 10 -9 26 -3 36 4 38 10 4z
m3 -85 c3 -5 1 -10 -4 -10 -6 0 -11 5 -11 10 0 6 2 10 4 10 3 0 8 -4 11 -10z
m-8 -42 c-3 -8 -6 -5 -6 6 -1 11 2 17 5 13 3 -3 4 -12 1 -19z m6 -88 c3 -11 2
-22 -2 -24 -4 -3 -8 6 -9 20 -2 29 4 31 11 4z m0 -80 c3 -11 2 -22 -2 -24 -4
-3 -8 6 -9 20 -2 29 4 31 11 4z m0 -80 c3 -11 2 -22 -2 -24 -4 -3 -8 6 -9 20
-2 29 4 31 11 4z m1 -99 c2 -17 1 -33 -3 -35 -4 -3 -7 14 -8 36 -2 46 5 46 11
-1z m1 -91 c3 -5 1 -10 -4 -10 -6 0 -11 5 -11 10 0 6 2 10 4 10 3 0 8 -4 11
-10z m-8 -42 c-3 -8 -6 -5 -6 6 -1 11 2 17 5 13 3 -3 4 -12 1 -19z m5 -113 c3
-14 2 -27 -1 -30 -4 -2 -8 10 -9 26 -3 36 4 38 10 4z m3 -85 c3 -5 1 -10 -4
-10 -6 0 -11 5 -11 10 0 6 2 10 4 10 3 0 8 -4 11 -10z m-8 -42 c-3 -8 -6 -5
-6 6 -1 11 2 17 5 13 3 -3 4 -12 1 -19z m5 -113 c3 -14 2 -27 -1 -30 -4 -2 -8
10 -9 26 -3 36 4 38 10 4z m2886 -35 c-1 -5 -39 -46 -84 -92 -349 -359 -701
-892 -903 -1368 -29 -69 -57 -134 -62 -145 -46 -102 -159 -454 -194 -605 -2
-8 -12 -53 -23 -100 -42 -178 -83 -437 -97 -615 -13 -170 -15 -206 -17 -307
l-2 -108 -758 0 c-417 0 -758 4 -758 8 0 5 331 8 736 8 481 -1 738 2 742 9 4
6 7 19 8 30 1 23 13 149 19 215 3 25 7 72 10 105 3 33 7 76 10 95 2 19 7 56
10 82 17 154 68 419 120 628 73 288 208 645 358 945 71 142 191 357 224 401
13 17 23 34 23 37 0 21 268 386 320 437 3 3 30 34 60 70 30 36 81 94 115 128
33 35 78 83 100 107 42 46 49 51 43 35z m-2883 -50 c3 -5 1 -10 -4 -10 -6 0
-11 5 -11 10 0 6 2 10 4 10 3 0 8 -4 11 -10z m-8 -42 c-3 -8 -6 -5 -6 6 -1 11
2 17 5 13 3 -3 4 -12 1 -19z m5 -113 c3 -14 2 -27 -1 -30 -4 -2 -8 10 -9 26
-3 36 4 38 10 4z m3 -85 c3 -5 1 -10 -4 -10 -6 0 -11 5 -11 10 0 6 2 10 4 10
3 0 8 -4 11 -10z m-8 -42 c-3 -8 -6 -5 -6 6 -1 11 2 17 5 13 3 -3 4 -12 1 -19z
m0 -110 c-3 -8 -6 -5 -6 6 -1 11 2 17 5 13 3 -3 4 -12 1 -19z m5 -83 c3 -14 2
-27 -1 -30 -4 -2 -8 10 -9 26 -3 36 4 38 10 4z m3 -85 c3 -5 1 -10 -4 -10 -6
0 -11 5 -11 10 0 6 2 10 4 10 3 0 8 -4 11 -10z m-8 -42 c-3 -8 -6 -5 -6 6 -1
11 2 17 5 13 3 -3 4 -12 1 -19z m0 -110 c-3 -8 -6 -5 -6 6 -1 11 2 17 5 13 3
-3 4 -12 1 -19z m5 -83 c3 -14 2 -27 -1 -30 -4 -2 -8 10 -9 26 -3 36 4 38 10
4z m3 -85 c3 -5 1 -10 -4 -10 -6 0 -11 5 -11 10 0 6 2 10 4 10 3 0 8 -4 11
-10z m-8 -42 c-3 -8 -6 -5 -6 6 -1 11 2 17 5 13 3 -3 4 -12 1 -19z m0 -110
c-3 -8 -6 -5 -6 6 -1 11 2 17 5 13 3 -3 4 -12 1 -19z m5 -83 c3 -14 2 -27 -1
-30 -4 -2 -8 10 -9 26 -3 36 4 38 10 4z m3 -85 c3 -5 1 -10 -4 -10 -6 0 -11 5
-11 10 0 6 2 10 4 10 3 0 8 -4 11 -10z m10874 -102 c58 -51 123 -108 144 -127
41 -38 101 -154 137 -266 13 -38 32 -88 43 -110 27 -54 67 -174 66 -199 0 -26
-36 52 -88 193 -90 244 -144 331 -292 479 -81 80 -108 101 -124 96 -98 -28
-260 -82 -304 -101 -108 -48 -200 -123 -427 -348 -207 -206 -210 -206 -36 2
82 99 198 206 317 292 71 53 100 66 260 120 99 33 184 60 189 61 5 0 56 -42
115 -92z m-10882 60 c-3 -8 -6 -5 -6 6 -1 11 2 17 5 13 3 -3 4 -12 1 -19z
m7997 1 c3 -3 0 -6 -6 -6 -34 0 -100 -45 -173 -118 -121 -119 -199 -226 -309
-422 -48 -86 -76 -127 -76 -110 0 16 120 238 140 257 3 3 27 39 55 80 27 41
106 132 175 202 111 112 128 126 157 125 17 -1 34 -5 37 -8z m228 -22 c122
-43 162 -62 255 -126 123 -83 265 -234 333 -355 39 -71 13 -47 -40 36 -94 146
-251 279 -438 372 -91 46 -204 82 -274 89 -64 6 -52 14 19 12 43 -1 96 -12
145 -28z m-8225 -89 c-3 -8 -6 -5 -6 6 -1 11 2 17 5 13 3 -3 4 -12 1 -19z m6
-58 c3 -11 2 -22 -2 -24 -4 -3 -8 6 -9 20 -2 29 4 31 11 4z m0 -80 c3 -11 2
-22 -2 -24 -4 -3 -8 6 -9 20 -2 29 4 31 11 4z m0 -80 c3 -11 2 -22 -2 -24 -4
-3 -8 6 -9 20 -2 29 4 31 11 4z m10637 -24 c-58 -21 -85 -29 -78 -21 9 10 80
34 98 34 8 0 -1 -6 -20 -13z m105 -4 c20 -13 43 -45 68 -96 45 -92 109 -255
105 -268 -5 -13 -53 94 -73 161 -27 89 -54 133 -106 179 -51 43 -48 56 6 24z
m-2427 -75 c9 -11 -9 -3 -40 18 -32 21 -58 40 -58 42 0 9 81 -42 98 -60z
m-8314 4 c2 -17 1 -33 -3 -35 -4 -3 -7 14 -8 36 -2 46 5 46 11 -1z m8426 -98
c83 -89 126 -150 170 -236 40 -81 50 -93 81 -104 48 -16 162 -23 417 -25 116
-2 212 -6 212 -10 0 -10 -657 4 -664 14 -3 3 -48 84 -91 163 -38 70 -118 177
-164 218 -21 19 -42 40 -46 48 -14 22 48 -27 85 -68z m-8425 7 c3 -5 1 -10 -4
-10 -6 0 -11 5 -11 10 0 6 2 10 4 10 3 0 8 -4 11 -10z m-8 -42 c-3 -8 -6 -5
-6 6 -1 11 2 17 5 13 3 -3 4 -12 1 -19z m9535 -23 c48 -4 97 -8 110 -10 13 -2
50 -6 83 -10 90 -10 80 -16 -16 -10 -46 2 -167 7 -269 10 -290 9 -531 23 -539
30 -5 6 521 -3 631 -10z m-9530 -90 c3 -14 2 -27 -1 -30 -4 -2 -8 10 -9 26 -3
36 4 38 10 4z m10166 -62 c-33 -36 -112 -153 -134 -198 l-17 -36 -56 6 c-31 4
-74 8 -96 11 -22 2 -60 6 -85 9 -98 13 -117 15 -175 20 -170 16 -200 23 -75
18 69 -2 136 -6 150 -9 65 -10 172 -19 238 -19 67 0 76 2 95 26 113 135 169
199 174 199 4 0 -5 -12 -19 -27z m-2833 -12 c-31 -13 -95 -20 -95 -11 0 8 23
13 85 17 25 2 27 1 10 -6z m3609 -46 c4 -19 3 -25 -3 -15 -4 8 -11 29 -15 45
-4 19 -3 25 3 15 4 -8 11 -28 15 -45z m-10939 35 c3 -5 1 -10 -4 -10 -6 0 -11
5 -11 10 0 6 2 10 4 10 3 0 8 -4 11 -10z m-8 -42 c-3 -8 -6 -5 -6 6 -1 11 2
17 5 13 3 -3 4 -12 1 -19z m11496 -25 c-13 -37 -36 -53 -75 -53 -42 0 -101 21
-113 40 -4 6 11 2 34 -9 22 -12 58 -21 80 -21 35 0 43 4 56 30 17 33 28 40 18
13z m-11491 -88 c3 -14 2 -27 -1 -30 -4 -2 -8 10 -9 26 -3 36 4 38 10 4z
m9391 8 c-7 -2 -21 -2 -30 0 -10 3 -4 5 12 5 17 0 24 -2 18 -5z m-9388 -93 c3
-5 1 -10 -4 -10 -6 0 -11 5 -11 10 0 6 2 10 4 10 3 0 8 -4 11 -10z m-8 -42
c-3 -8 -6 -5 -6 6 -1 11 2 17 5 13 3 -3 4 -12 1 -19z m6 -88 c3 -11 2 -22 -2
-24 -4 -3 -8 6 -9 20 -2 29 4 31 11 4z m0 -80 c3 -11 2 -22 -2 -24 -4 -3 -8 6
-9 20 -2 29 4 31 11 4z m0 -80 c3 -11 2 -22 -2 -24 -4 -3 -8 6 -9 20 -2 29 4
31 11 4z m0 -80 c3 -11 2 -22 -2 -24 -4 -3 -8 6 -9 20 -2 29 4 31 11 4z m0
-80 c3 -11 2 -22 -2 -24 -4 -3 -8 6 -9 20 -2 29 4 31 11 4z m0 -80 c3 -11 2
-22 -2 -24 -4 -3 -8 6 -9 20 -2 29 4 31 11 4z m0 -80 c3 -11 2 -22 -2 -24 -4
-3 -8 6 -9 20 -2 29 4 31 11 4z m16375 -51 l-3 -44 -5 52 c-3 29 -1 48 3 44 5
-5 7 -28 5 -52z m-16374 -48 c2 -17 1 -33 -3 -35 -4 -3 -7 14 -8 36 -2 46 5
46 11 -1z m1 -91 c3 -5 1 -10 -4 -10 -6 0 -11 5 -11 10 0 6 2 10 4 10 3 0 8
-4 11 -10z m-8 -42 c-3 -8 -6 -5 -6 6 -1 11 2 17 5 13 3 -3 4 -12 1 -19z m6
-108 c3 -11 1 -20 -4 -20 -5 0 -9 9 -9 20 0 11 2 20 4 20 2 0 6 -9 9 -20z
m11309 -9321 c98 -56 178 -103 178 -105 0 -7 -49 15 -177 80 -170 86 -220 100
-342 93 -53 -3 -107 -7 -121 -11 -14 -3 -36 -7 -50 -10 -14 -2 -97 -25 -185
-51 -133 -38 -347 -94 -422 -110 -83 -17 -175 -34 -208 -40 -22 -3 -51 -8 -65
-11 -23 -4 -23 -4 -4 5 11 5 59 16 105 25 96 18 107 21 169 35 25 5 61 13 80
16 53 9 138 32 205 55 33 11 61 20 63 19 2 0 15 3 30 9 38 14 232 73 254 77
10 2 21 6 26 8 4 3 30 8 57 11 96 11 139 17 143 20 13 14 111 -29 264 -115z
m-4159 3 c45 -16 118 -37 162 -47 157 -35 270 -63 255 -64 -8 -1 -78 13 -155
29 -366 78 -459 92 -532 76 -75 -16 -235 -65 -418 -127 -115 -39 -253 -85
-305 -102 -52 -17 -96 -32 -98 -33 -2 -1 -5 -379 -8 -840 -5 -911 -5 -907 -13
-899 -10 11 -6 1746 4 1755 6 4 35 13 65 19 30 7 127 38 215 71 138 50 295
106 440 155 43 15 79 20 190 31 39 3 72 8 73 9 6 6 41 -3 125 -33z m1922 -36
c39 -8 120 -27 180 -42 61 -14 119 -27 130 -30 107 -24 177 -42 164 -43 -8 -1
-58 8 -110 19 -84 19 -185 39 -274 55 -16 3 -50 8 -75 11 -25 3 -56 8 -70 10
-59 10 -321 12 -385 3 -106 -14 -115 -16 -180 -32 -33 -8 -80 -18 -105 -22
-25 -4 -52 -9 -60 -10 -51 -9 -124 -16 -120 -12 3 2 65 15 138 27 82 14 163
34 212 54 l78 31 204 -1 c148 -1 222 -6 273 -18z m2610 -126 c83 -24 153 -47
156 -52 7 -12 9 -1781 2 -1774 -8 8 -17 454 -28 1484 -1 151 -6 277 -11 282
-5 4 -57 22 -116 39 -58 17 -126 41 -150 52 -52 25 -44 23 147 -31z m-3848 24
c-3 -3 -12 -4 -19 -1 -8 3 -5 6 6 6 11 1 17 -2 13 -5z m176 -1 c-29 -2 -78 -2
-110 0 -32 2 -8 3 52 3 61 0 87 -1 58 -3z m1584 -19 c-3 -3 -12 -4 -19 -1 -8
3 -5 6 6 6 11 1 17 -2 13 -5z m223 -16 c0 -8 -181 -1 -189 8 -3 3 38 4 92 2
53 -2 97 -6 97 -10z m1110 -47 c0 -5 -33 -18 -72 -29 -40 -11 -111 -32 -158
-47 -126 -40 -350 -102 -390 -108 -39 -6 -73 -13 -270 -55 -74 -16 -157 -27
-185 -26 -27 1 -103 5 -169 8 -70 4 -159 16 -220 30 -55 13 -165 39 -243 57
-140 32 -192 52 -76 29 32 -7 67 -13 78 -16 31 -5 48 -10 70 -17 22 -7 60 -14
115 -22 19 -3 45 -8 56 -10 63 -14 181 -20 364 -19 202 1 234 4 426 49 182 42
635 166 672 184 1 0 2 -3 2 -8z m43 2 c-7 -2 -19 -2 -25 0 -7 3 -2 5 12 5 14
0 19 -2 13 -5z m307 -90 c52 -25 127 -61 166 -80 l71 -34 2 -642 c4 -1215 12
-1526 41 -1638 19 -71 94 -151 173 -184 39 -16 150 -44 202 -50 98 -12 126
-15 180 -20 61 -5 244 -14 410 -20 50 -2 157 -4 239 -4 82 -1 147 -4 144 -7
-10 -9 -836 0 -913 11 -22 3 -58 8 -80 10 -67 9 -198 55 -239 83 -59 41 -114
112 -137 178 -46 130 -47 160 -48 1243 0 564 -4 1027 -8 1031 -4 4 -28 12 -53
19 -40 11 -330 168 -355 192 -12 12 71 -24 205 -88z m-4425 -3 c-11 -5 -101
-37 -200 -71 -99 -34 -187 -65 -195 -70 -13 -6 -15 -124 -16 -901 0 -765 -5
-1022 -19 -1098 -1 -8 -6 -35 -10 -60 -23 -142 -71 -265 -129 -331 -40 -46
-105 -87 -169 -108 -60 -19 -81 -23 -197 -37 -75 -9 -1051 -11 -1056 -2 -3 4
120 8 273 8 565 3 695 8 873 35 63 9 165 45 195 68 6 4 22 16 36 27 49 36 106
139 125 225 44 203 44 200 59 1600 3 314 10 573 14 578 12 12 313 121 379 136
48 12 62 12 37 1z m325 -5 c106 -21 144 -29 208 -46 39 -11 89 -22 110 -25 20
-3 53 -10 72 -15 113 -31 536 -34 735 -4 17 2 48 6 70 9 22 3 85 17 139 31 54
14 104 24 109 22 16 -5 -102 -46 -153 -53 -24 -3 -47 -7 -50 -9 -3 -2 -27 -6
-55 -9 -27 -4 -83 -13 -124 -19 -113 -20 -588 -15 -663 7 -32 8 -72 18 -90 21
-18 3 -69 15 -113 25 -44 11 -111 26 -150 34 -38 8 -88 22 -110 31 l-40 15 40
-5 c22 -3 51 -7 65 -10z m4667 -1737 c-2 -13 -4 -5 -4 17 -1 22 1 32 4 23 2
-10 2 -28 0 -40z m-5820 -260 c-13 -132 -65 -220 -152 -255 -27 -12 -28 -12
-10 2 36 26 86 80 102 109 24 46 53 136 53 168 0 15 3 28 6 28 4 0 4 -24 1
-52z m5840 -10 c-3 -8 -6 -5 -6 6 -1 11 2 17 5 13 3 -3 4 -12 1 -19z m78 -174
c15 -20 43 -45 62 -56 38 -23 39 -35 2 -16 -65 34 -102 80 -125 156 -21 70
-17 74 10 9 13 -31 36 -74 51 -93z m-8130 -122 c-7 -5 -10 -242 -9 -732 1
-399 2 -730 3 -735 1 -7 1676 -10 5021 -10 3600 0 5020 -3 5020 -11 0 -11
-10059 -16 -10061 -5 -4 16 -5 1487 -2 1494 2 4 12 7 21 7 10 0 13 -3 7 -8z
m472 2 c-3 -3 -12 -4 -19 -1 -8 3 -5 6 6 6 11 1 17 -2 13 -5z m60 0 c-3 -3
-12 -4 -19 -1 -8 3 -5 6 6 6 11 1 17 -2 13 -5z m60 0 c-3 -3 -12 -4 -19 -1 -8
3 -5 6 6 6 11 1 17 -2 13 -5z m60 0 c-3 -3 -12 -4 -19 -1 -8 3 -5 6 6 6 11 1
17 -2 13 -5z m60 0 c-3 -3 -12 -4 -19 -1 -8 3 -5 6 6 6 11 1 17 -2 13 -5z m60
0 c-3 -3 -12 -4 -19 -1 -8 3 -5 6 6 6 11 1 17 -2 13 -5z m60 0 c-3 -3 -12 -4
-19 -1 -8 3 -5 6 6 6 11 1 17 -2 13 -5z m60 0 c-3 -3 -12 -4 -19 -1 -8 3 -5 6
6 6 11 1 17 -2 13 -5z m60 0 c-3 -3 -12 -4 -19 -1 -8 3 -5 6 6 6 11 1 17 -2
13 -5z m60 0 c-3 -3 -12 -4 -19 -1 -8 3 -5 6 6 6 11 1 17 -2 13 -5z m60 0 c-3
-3 -12 -4 -19 -1 -8 3 -5 6 6 6 11 1 17 -2 13 -5z m60 0 c-3 -3 -12 -4 -19 -1
-8 3 -5 6 6 6 11 1 17 -2 13 -5z m60 0 c-3 -3 -12 -4 -19 -1 -8 3 -5 6 6 6 11
1 17 -2 13 -5z m60 0 c-3 -3 -12 -4 -19 -1 -8 3 -5 6 6 6 11 1 17 -2 13 -5z
m7880 0 c-3 -3 -12 -4 -19 -1 -8 3 -5 6 6 6 11 1 17 -2 13 -5z m60 0 c-3 -3
-12 -4 -19 -1 -8 3 -5 6 6 6 11 1 17 -2 13 -5z m60 0 c-3 -3 -12 -4 -19 -1 -8
3 -5 6 6 6 11 1 17 -2 13 -5z m60 0 c-3 -3 -12 -4 -19 -1 -8 3 -5 6 6 6 11 1
17 -2 13 -5z m80 0 c-3 -3 -12 -4 -19 -1 -8 3 -5 6 6 6 11 1 17 -2 13 -5z m60
0 c-3 -3 -12 -4 -19 -1 -8 3 -5 6 6 6 11 1 17 -2 13 -5z m60 0 c-3 -3 -12 -4
-19 -1 -8 3 -5 6 6 6 11 1 17 -2 13 -5z m60 0 c-3 -3 -12 -4 -19 -1 -8 3 -5 6
6 6 11 1 17 -2 13 -5z m60 0 c-3 -3 -12 -4 -19 -1 -8 3 -5 6 6 6 11 1 17 -2
13 -5z m140 0 c-3 -3 -12 -4 -19 -1 -8 3 -5 6 6 6 11 1 17 -2 13 -5z m60 0
c-3 -3 -12 -4 -19 -1 -8 3 -5 6 6 6 11 1 17 -2 13 -5z m60 0 c-3 -3 -12 -4
-19 -1 -8 3 -5 6 6 6 11 1 17 -2 13 -5z m60 0 c-3 -3 -12 -4 -19 -1 -8 3 -5 6
6 6 11 1 17 -2 13 -5z m-9192 -374 c-3 -5 -12 -10 -18 -10 -7 0 -6 4 3 10 19
12 23 12 15 0z m79 2 c2 -4 -12 -8 -31 -8 -19 -1 -30 1 -24 5 14 9 50 11 55 3z
m76 -4 c0 -4 -4 -8 -9 -8 -6 0 -12 4 -15 8 -3 5 1 9 9 9 8 0 15 -4 15 -9z m75
3 c-8 -7 -65 -8 -60 -1 2 3 18 6 34 6 17 0 28 -2 26 -5z m45 1 c0 -5 -7 -9
-15 -9 -8 0 -15 4 -15 9 0 4 7 8 15 8 8 0 15 -4 15 -8z m8090 -2 c0 -5 -2 -10
-4 -10 -3 0 -8 5 -11 10 -3 6 -1 10 4 10 6 0 11 -4 11 -10z m50 5 c0 -7 -30
-13 -34 -7 -3 4 4 9 15 9 10 1 19 0 19 -2z m40 1 c0 -3 -4 -8 -10 -11 -5 -3
-10 -1 -10 4 0 6 5 11 10 11 6 0 10 -2 10 -4z m60 -6 c0 -5 -2 -10 -4 -10 -3
0 -8 5 -11 10 -3 6 -1 10 4 10 6 0 11 -4 11 -10z m424 -368 c-1 -196 -2 -359
-3 -362 -1 -4 -9309 -5 -9333 -1 -83 14 726 16 4643 16 4125 0 4652 2 4658 15
3 8 6 168 6 356 -1 307 0 341 15 337 14 -4 15 -43 14 -361z"/>
</g>
</svg>
